<?xml version="1.0" encoding="UTF-8" standalone="no"?>
<!-- Created with Inkscape (http://www.inkscape.org/) -->

<svg
   width="210mm"
   height="297mm"
   viewBox="0 0 210 297"
   version="1.1"
   id="svg5"
   xml:space="preserve"
   inkscape:export-filename="Facebook.png"
   inkscape:export-xdpi="96"
   inkscape:export-ydpi="96"
   xmlns:inkscape="http://www.inkscape.org/namespaces/inkscape"
   xmlns:sodipodi="http://sodipodi.sourceforge.net/DTD/sodipodi-0.dtd"
   xmlns="http://www.w3.org/2000/svg"
   xmlns:svg="http://www.w3.org/2000/svg"><sodipodi:namedview
     id="namedview7"
     pagecolor="#ffffff"
     bordercolor="#999999"
     borderopacity="1"
     inkscape:showpageshadow="0"
     inkscape:pageopacity="0"
     inkscape:pagecheckerboard="0"
     inkscape:deskcolor="#d1d1d1"
     inkscape:document-units="mm"
     showgrid="false" /><defs
     id="defs2" /><g
     inkscape:label="Layer 1"
     inkscape:groupmode="layer"
     id="layer1"><path
       style="fill:#000000;stroke-width:0.282222"
       d="m 85.829271,188.84707 c -2.17747,-0.67891 -4.2784,-2.65959 -4.7955,-4.52102 -0.17545,-0.63156 -0.28011,-10.95538 -0.2811,-27.72658 l -0.002,-26.72038 -7.69056,-0.0907 c -7.54245,-0.089 -7.71693,-0.10423 -9.06044,-0.79043 -1.54538,-0.7893 -2.56942,-1.87786 -3.32422,-3.53366 -0.47298,-1.03758 -0.51511,-2.14202 -0.5208,-13.65503 -0.004,-8.70669 0.0937,-12.859477 0.32133,-13.619357 0.39587,-1.32129 1.84201,-3.07031 3.27566,-3.9617 1.02016,-0.6343 1.30337,-0.65948 8.9557,-0.79613 l 7.90222,-0.14111 0.163,-8.748889 c 0.13733,-7.37071 0.25636,-9.19346 0.75564,-11.57111 1.92831,-9.18284 6.21332,-16.33094 12.76914,-21.30101 3.7867,-2.87075 7.768719,-4.76072 12.963239,-6.15268 2.68717,-0.72007 2.7651,-0.72407 16.2909,-0.83579 13.07877,-0.10803 13.63183,-0.0913 14.67925,0.44302 1.37963,0.70383 2.52261,1.84432 3.29664,3.28943 0.58783,1.0975 0.60927,1.48943 0.69187,12.65151 0.0966,13.05181 0.0222,13.68234 -1.86041,15.77241 -1.99038,2.2097 -2.4514,2.30423 -12.06716,2.47427 -9.30901,0.16461 -9.76398,0.25016 -10.19725,1.91741 -0.11042,0.4249 -0.20768,3.31254 -0.21615,6.41699 l -0.0154,5.644439 9.31334,0.14111 9.31333,0.14112 1.35245,0.79498 c 1.70143,1.00011 2.89913,2.63533 3.3088,4.51752 0.21674,0.99579 0.28908,5.324027 0.22724,13.596377 -0.0881,11.78798 -0.10809,12.168 -0.69734,13.26815 -0.82754,1.54502 -1.97251,2.64673 -3.4856,3.35387 -1.19459,0.55829 -1.81044,0.59859 -10.37166,0.67857 l -9.10167,0.085 -0.002,26.72608 c -8.5e-4,16.77497 -0.10565,27.10073 -0.2811,27.7323 -0.36761,1.32333 -2.02558,3.23131 -3.48709,4.01296 -1.15457,0.61748 -1.33252,0.62591 -14.292452,0.67694 -7.217837,0.0284 -13.441657,-0.0476 -13.830717,-0.16888 z m 23.426269,-35.28779 c 0,-17.90109 0.10064,-27.53853 0.29693,-28.4339 0.33921,-1.54727 0.90133,-2.33106 2.27036,-3.16568 0.92464,-0.5637 1.33701,-0.58559 11.04993,-0.5866 l 10.08944,-10e-4 v -9.73667 -9.73666 l -9.66611,-0.0124 c -10.1181,-0.013 -11.08389,-0.11431 -12.3948,-1.30067 -1.38712,-1.255327 -1.49679,-1.839347 -1.59776,-8.508747 -0.0934,-6.172989 0.22246,-11.639579 0.78633,-13.606509 0.8546,-2.98114 3.46786,-5.66112 6.64457,-6.81419 1.52793,-0.55461 2.43761,-0.63068 9.31333,-0.77885 l 7.62,-0.1642 0.0745,-8.96055 0.0745,-8.96056 -9.38785,0.002 c -10.51323,0.002 -13.21006,0.26402 -17.51684,1.70282 -8.800519,2.94005 -14.381239,9.19954 -16.882959,18.93638 -0.55267,2.15106 -0.62189,3.36081 -0.78087,13.64914 -0.18668,12.081109 -0.1971,12.164969 -1.67628,13.503606 -1.27857,1.1571 -2.36755,1.28773 -10.84257,1.30067 l -8.11389,0.0124 v 9.73666 9.73667 l 8.53722,0.001 c 8.14203,0.001 8.58168,0.0282 9.49771,0.5866 1.36903,0.83462 1.93115,1.61842 2.27036,3.16568 0.19629,0.89537 0.29693,10.53281 0.29693,28.4339 v 27.07937 H 99.236608 109.2555 Z"
       id="path125" /></g></svg>
