<?xml version="1.0" encoding="UTF-8" standalone="no"?>
<!-- Created with Inkscape (http://www.inkscape.org/) -->

<svg
   width="210mm"
   height="297mm"
   viewBox="0 0 210 297"
   version="1.1"
   id="svg5"
   xml:space="preserve"
   inkscape:export-filename="Facebook.svg"
   inkscape:export-xdpi="96"
   inkscape:export-ydpi="96"
   xmlns:inkscape="http://www.inkscape.org/namespaces/inkscape"
   xmlns:sodipodi="http://sodipodi.sourceforge.net/DTD/sodipodi-0.dtd"
   xmlns="http://www.w3.org/2000/svg"
   xmlns:svg="http://www.w3.org/2000/svg"><sodipodi:namedview
     id="namedview7"
     pagecolor="#ffffff"
     bordercolor="#999999"
     borderopacity="1"
     inkscape:showpageshadow="0"
     inkscape:pageopacity="0"
     inkscape:pagecheckerboard="0"
     inkscape:deskcolor="#d1d1d1"
     inkscape:document-units="mm"
     showgrid="false" /><defs
     id="defs2" /><g
     inkscape:label="Layer 1"
     inkscape:groupmode="layer"
     id="layer1"><path
       style="fill:#000000;stroke-width:0.399953"
       d="m 9.289399,222.59589 c 0.100227,-0.26981 3.179186,-11.04713 6.84213,-23.9496 l 6.659897,-23.45905 -2.715959,-5.38599 C 13.351252,156.46654 10.528573,145.51583 10.119519,131.17671 9.782221,119.35299 11.130871,110.041 14.683904,99.661115 19.890757,84.449725 27.623336,72.595355 39.695095,61.317905 54.233203,47.736395 71.700716,39.357724 92.344932,36.063284 c 5.48357,-0.875078 17.125768,-1.169646 23.483498,-0.594173 36.50102,3.303909 67.58744,25.830934 81.27133,58.893934 2.14185,5.17513 4.15235,12.194795 5.35779,18.706835 1.25703,6.79066 1.3764,22.60354 0.22169,29.36822 -7.16861,41.99649 -41.37568,73.72076 -84.85926,78.70007 -5.20907,0.59649 -16.74484,0.59457 -22.010438,-0.004 -10.97523,-1.24691 -25.289555,-5.40645 -33.135755,-9.62876 -0.999233,-0.53785 -2.035497,-0.97781 -2.302806,-0.97781 -0.267312,0 -11.662125,2.82507 -25.321808,6.27793 -13.659683,3.45286 -25.084687,6.2785 -25.388898,6.27919 -0.30421,7.9e-4 -0.471105,-0.21949 -0.370876,-0.4893 z M 117.98053,205.19038 c 34.03336,-4.33715 61.71388,-29.9524 68.14849,-63.06382 1.07994,-5.55722 1.48878,-16.5993 0.81796,-22.09174 -1.56801,-12.83828 -5.92466,-24.360185 -13.11344,-34.680725 -18.41827,-26.4421 -50.74973,-39.22447 -83.322808,-32.942 -27.159166,5.23827 -50.608296,25.01189 -59.671098,50.318005 -7.94138,22.17477 -5.35275,46.25365 7.074546,65.80588 1.303317,2.05055 2.357864,3.99318 2.343437,4.31695 -0.01443,0.32377 -1.782859,6.75428 -3.929849,14.29002 -2.14699,7.53575 -3.833301,13.76906 -3.747357,13.85181 0.08594,0.0828 4.626378,-0.98282 10.089857,-2.36793 5.463476,-1.38511 12.249266,-3.0916 15.079535,-3.79221 l 5.145943,-1.27382 2.996566,1.68504 c 15.85552,8.91591 33.5906,12.30184 52.088218,9.94454 z m 8.11319,-32.51517 c -3.56966,-0.7196 -10.17324,-2.90482 -16.27052,-5.38417 -15.449948,-6.28242 -29.889268,-18.44629 -42.546289,-35.84153 -3.652913,-5.0204 -6.562159,-10.39482 -8.178863,-15.1093 -1.026004,-2.99195 -1.146576,-3.90219 -1.169651,-8.83011 -0.028,-5.97997 0.645293,-8.924235 2.916718,-12.754605 1.665542,-2.80865 5.135667,-6.77194 7.047155,-8.04868 1.669313,-1.11498 1.99744,-1.18041 6.539942,-1.30391 6.61322,-0.17979 6.14906,-0.66981 11.81081,12.46871 2.45933,5.707025 4.47151,10.704815 4.47151,11.106175 0,1.18553 -1.1362,2.98561 -4.74606,7.51921 -1.87328,2.35263 -3.40596,4.6606 -3.40596,5.12881 0,1.98452 6.19647,10.37005 11.4274,15.46441 5.84518,5.69258 11.668918,9.52293 20.205518,13.28946 4.92885,2.17471 5.16072,2.15896 7.7669,-0.52779 1.23344,-1.27158 3.54067,-3.94922 5.12718,-5.95032 3.18854,-4.0218 3.90018,-4.40702 6.77416,-3.66692 2.45263,0.63159 20.91371,9.31383 21.55747,10.13847 1.10834,1.41975 0.17384,8.46944 -1.61048,12.14911 -1.62053,3.3419 -7.83398,7.78354 -13.36842,9.55634 -3.41485,1.09385 -10.43419,1.38573 -14.34852,0.59664 z"
       id="path221" /></g></svg>
